<svg xmlns="http://www.w3.org/2000/svg" viewBox="0 0 48 48" width="48" height="48">
  <defs>
    <linearGradient id="ag" x1="0%" y1="0%" x2="100%" y2="100%">
      <stop offset="0%" style="stop-color:#3DDC84"/>
      <stop offset="100%" style="stop-color:#00C853"/>
    </linearGradient>
  </defs>
  <!-- Body -->
  <rect x="8" y="18" width="32" height="22" rx="4" ry="4" fill="url(#ag)"/>
  <!-- Head / antenna arcs -->
  <path d="M14 18 Q14 8 24 8 Q34 8 34 18" fill="none" stroke="url(#ag)" stroke-width="2.5" stroke-linecap="round"/>
  <!-- Antenna left -->
  <line x1="17" y1="10" x2="14" y2="6" stroke="#3DDC84" stroke-width="2" stroke-linecap="round"/>
  <!-- Antenna right -->
  <line x1="31" y1="10" x2="34" y2="6" stroke="#3DDC84" stroke-width="2" stroke-linecap="round"/>
  <!-- Eyes -->
  <circle cx="19" cy="14" r="1.8" fill="#fff"/>
  <circle cx="29" cy="14" r="1.8" fill="#fff"/>
  <!-- Arms -->
  <rect x="2" y="20" width="5" height="14" rx="2.5" ry="2.5" fill="#3DDC84"/>
  <rect x="41" y="20" width="5" height="14" rx="2.5" ry="2.5" fill="#3DDC84"/>
  <!-- Legs -->
  <rect x="14" y="38" width="6" height="8" rx="3" ry="3" fill="#3DDC84"/>
  <rect x="28" y="38" width="6" height="8" rx="3" ry="3" fill="#3DDC84"/>
</svg>
